<?xml version="1.0" encoding="UTF-8" standalone="no"?>
<svg
   xmlns:dc="http://purl.org/dc/elements/1.1/"
   xmlns:cc="http://creativecommons.org/ns#"
   xmlns:rdf="http://www.w3.org/1999/02/22-rdf-syntax-ns#"
   xmlns:svg="http://www.w3.org/2000/svg"
   xmlns="http://www.w3.org/2000/svg"
   xmlns:sodipodi="http://sodipodi.sourceforge.net/DTD/sodipodi-0.dtd"
   xmlns:inkscape="http://www.inkscape.org/namespaces/inkscape"
   aria-hidden="true"
   focusable="false"
   data-prefix="fas"
   data-icon="hand"
   class="svg-inline--fa fa-hand fa-1x "
   role="img"
   viewBox="0 0 18 19.149703"
   version="1.1"
   id="svg4"
   sodipodi:docname="hand.white.svg"
   width="18"
   height="19.149702"
   inkscape:version="1.0.2-2 (e86c870879, 2021-01-15)">
  <metadata
     id="metadata10">
    <rdf:RDF>
      <cc:Work
         rdf:about="">
        <dc:format>image/svg+xml</dc:format>
        <dc:type
           rdf:resource="http://purl.org/dc/dcmitype/StillImage" />
        <dc:title></dc:title>
      </cc:Work>
    </rdf:RDF>
  </metadata>
  <defs
     id="defs8" />
  <sodipodi:namedview
     pagecolor="#ffffff"
     bordercolor="#666666"
     borderopacity="1"
     objecttolerance="10"
     gridtolerance="10"
     guidetolerance="10"
     inkscape:pageopacity="0"
     inkscape:pageshadow="2"
     inkscape:window-width="1920"
     inkscape:window-height="1027"
     id="namedview6"
     showgrid="false"
     fit-margin-top="0"
     fit-margin-left="0"
     fit-margin-right="0"
     fit-margin-bottom="0"
     inkscape:zoom="19.401242"
     inkscape:cx="2.2342399"
     inkscape:cy="14.649017"
     inkscape:window-x="1912"
     inkscape:window-y="-8"
     inkscape:window-maximized="1"
     inkscape:current-layer="svg4" />
  <path
     fill="currentColor"
     d="m 17.622754,4.976048 v 7.473054 c 0,3.486826 -2.836526,6.323354 -6.323354,6.323354 H 9.9441922 c -1.9192819,0 -3.7257491,-0.747307 -5.08024,-2.104671 L 0.80047903,12.604312 C 0.51758081,12.323353 0.37724549,11.953294 0.37724549,11.586827 c 0,-0.76527 0.61616766,-1.437126 1.43712571,-1.437126 0.3675449,0 0.7354492,0.140335 1.0160479,0.421078 L 4.976048,12.714971 V 2.6766467 c 0,-0.6348504 0.5148502,-1.1497007 1.1497005,-1.1497007 0.6348504,0 1.1497007,0.5148503 1.1497007,1.1497007 l 0.00262,6.3233534 c 9.736e-4,0.3161676 0.2560634,0.5748503 0.5722311,0.5748503 0.3161677,0 0.5773653,-0.2573892 0.5773653,-0.5748503 L 8.4251456,1.526946 c 0,-0.63485021 0.5148503,-1.14970051 1.1497005,-1.14970051 0.6348499,0 1.1497009,0.5148503 1.1497009,1.14970051 l 0.0017,7.4730541 c 0,0.3174611 0.255485,0.5748503 0.573054,0.5748503 0.317568,0 0.574908,-0.2586827 0.574908,-0.5748503 V 2.6766467 c 0,-0.6348504 0.51485,-1.1497007 1.1497,-1.1497007 0.63485,0 1.149702,0.5148503 1.149702,1.1497007 l 0.0026,6.3233534 c 0,0.3174611 0.254767,0.5748503 0.572335,0.5748503 0.317569,0 0.574747,-0.2586827 0.574747,-0.5748503 V 4.976048 c 0,-0.6348503 0.514849,-1.1497007 1.1497,-1.1497007 0.63485,0 1.1497,0.5137725 1.1497,1.1497007 z"
     id="path2"
     style="fill:#ffffff;fill-opacity:1;stroke:#000000;stroke-width:0.754491;stroke-linecap:butt;stroke-linejoin:round;stroke-miterlimit:4;stroke-dasharray:none;paint-order:fill markers stroke" />
</svg>
